<svg width="51" height="16" viewBox="0 0 51 16" fill="none" xmlns="http://www.w3.org/2000/svg">
<g clip-path="url(#clip0_2036_1179)">
<path fill-rule="evenodd" clip-rule="evenodd" d="M46.9626 12.94H48.4579L50.9292 6.38398H49.3582L48.2749 9.76031H48.2559L47.1716 6.38365H45.6036L47.5202 11.488L46.9626 12.94ZM45.1883 10.366C45.1009 10.386 45.0216 10.396 44.9009 10.396C44.5326 10.396 44.4342 10.287 44.4342 10.0583V7.47498H45.1883V6.38398H44.4342V4.78665H43.0026V6.38331H42.3482V7.47498H43.0026V10.217C43.0026 11.319 43.5692 11.547 44.5032 11.547C44.7332 11.547 44.9606 11.5166 45.1883 11.4876V10.366ZM40.3639 11.488V6.38398H41.7966V11.488H40.3639ZM40.2452 4.28931C40.2452 3.87031 40.6029 3.44531 41.0806 3.44531C41.5072 3.44531 41.9139 3.81198 41.9139 4.26865C41.9139 4.70431 41.5376 5.11198 41.0806 5.11198C40.6029 5.11198 40.2452 4.68531 40.2452 4.28931ZM38.2342 3.75865V11.488H39.6666V3.62531H38.2342V3.75865ZM37.7159 9.34331H33.9802C34.0389 9.93831 34.4063 10.536 35.1719 10.536C35.6106 10.536 35.9969 10.3266 36.1956 9.92931L37.5872 10.037C37.2396 11.082 36.3043 11.627 35.1026 11.627C33.5613 11.627 32.4896 10.5753 32.4896 8.94665C32.4896 7.29798 33.5613 6.24531 35.1029 6.24531C36.6436 6.24531 37.7162 7.29798 37.7162 8.94665L37.7159 9.34331ZM36.2866 8.42998C36.2349 7.93331 35.8576 7.33831 35.1719 7.33831C34.4269 7.33831 34.0589 7.85498 33.9802 8.43031H36.2869L36.2866 8.42998ZM30.6269 11.488V10.7733H30.6073C30.1993 11.379 29.6032 11.6273 28.9472 11.6273C27.5266 11.6273 26.5619 10.3466 26.5619 8.92631C26.5619 7.50731 27.4579 6.24531 28.9269 6.24531C29.5836 6.24531 30.0703 6.45331 30.5476 7.07931H30.5679V3.62531H31.9973V11.4883H30.6272L30.6269 11.488ZM29.3056 7.45798C28.4812 7.45798 28.0533 8.19265 28.0533 8.96698C28.0533 9.77031 28.5006 10.4763 29.3446 10.4763C30.1593 10.4763 30.6166 9.80098 30.6166 8.94631C30.6166 8.17965 30.1992 7.45798 29.3056 7.45798ZM24.4349 11.499V6.42198H26.0153V11.4986H24.4349V11.499ZM24.3899 4.28898C24.3899 3.87031 24.7476 3.44531 25.2239 3.44531C25.6516 3.44531 26.0576 3.81198 26.0576 4.26865C26.0576 4.70431 25.6823 5.11198 25.2243 5.11198C24.7476 5.11198 24.3899 4.68531 24.3899 4.28931V4.28898ZM18.9062 7.84231V8.73131H19.6573L19.6576 11.517H21.2369V8.73131H22.7286L23.1236 7.84231H21.2369V7.32331H23.3556L23.7513 6.43465H21.2369V4.94298H23.7513V3.64598H19.6573V6.43465H18.9062V7.32331H19.6573V7.84231H18.9062ZM48.4116 15.609V15.9613H47.3916V14.1663H47.8276V15.609H48.4116ZM45.2229 15.703L45.1449 15.9613H44.6796L45.2712 14.1663H45.8256L46.4156 15.9613H45.9362L45.8582 15.703H45.2229ZM45.5406 14.6806L45.3306 15.3503H45.7506L45.5406 14.6806ZM42.6082 15.9613H42.1722V14.1663H42.6079L43.2623 15.1756V14.1663H43.6979V15.9613H43.2619L42.6079 14.9386L42.6082 15.9613ZM41.2169 15.0676C41.2169 15.5816 40.7972 15.996 40.2779 15.996C39.7422 15.996 39.3176 15.587 39.3176 15.0703C39.3176 14.8093 39.4226 14.567 39.6189 14.3813C39.7906 14.22 40.0249 14.1313 40.2886 14.1313C40.8189 14.1313 41.2169 14.532 41.2169 15.0676ZM39.7612 15.065C39.7612 15.3606 39.9846 15.5923 40.2696 15.5923C40.5493 15.5923 40.7756 15.3606 40.7756 15.073C40.7756 14.7663 40.5602 14.5353 40.2726 14.5353C39.9789 14.5353 39.7612 14.7603 39.7612 15.065ZM37.8732 15.9613H38.3096V14.1666H37.8732V15.9613ZM36.3049 15.9613H35.8692V14.5186H35.4546V14.1663H36.7169V14.5186H36.3052L36.3049 15.9613ZM33.5336 15.703L33.4553 15.9613H32.9899L33.5819 14.1663H34.1366L34.7259 15.9613H34.2466L34.1686 15.703H33.5336ZM33.8509 14.6806L33.6409 15.3503H34.0609L33.8509 14.6806ZM30.9379 15.9613H30.5022V14.1663H30.9379L31.5919 15.1756V14.1663H32.0279V15.9613H31.5916L30.9376 14.9386L30.9379 15.9613ZM28.5116 15.9613H28.0749V14.1663H28.6562C28.8932 14.1663 29.0652 14.2096 29.1836 14.301C29.3076 14.3976 29.3776 14.5596 29.3776 14.7556C29.3776 15.0276 29.2619 15.2103 29.0302 15.302L29.4259 15.9613H28.9039L28.5116 15.2666V15.9613ZM28.6516 15.0223C28.8316 15.0223 28.9363 14.931 28.9363 14.775C28.9363 14.6236 28.8343 14.5243 28.6779 14.5243H28.5113V15.0223H28.6516ZM26.3889 14.8846H26.9809V15.2373H26.3889V15.6086H26.9809V15.961H25.9529V14.166H26.9809V14.5183H26.3889V14.8846ZM24.5999 15.9613H24.1639V14.5186H23.7496V14.1663H25.0116V14.5186H24.5999V15.9613ZM21.6783 15.9613H21.2416V14.1663H21.6779L22.3316 15.1756V14.1663H22.7676V15.9613H22.3319L21.6779 14.9386L21.6783 15.9613ZM19.6576 15.9613H20.0936V14.1666H19.6576V15.9613Z" fill="white"/>
<path fill-rule="evenodd" clip-rule="evenodd" d="M0 16H16V0H0V16Z" fill="#B72F2A"/>
<path fill-rule="evenodd" clip-rule="evenodd" d="M10.9749 5.16544V3.64844H6.20154V6.90344H5.17188V7.93877H6.20188V8.75777H5.17188V9.79444H6.20188V12.9811H8.04288V9.79444H9.67687L10.1395 8.75777H8.04288V7.93877H10.5139L10.9749 6.90344H8.04288V5.16544H10.9749Z" fill="white"/>
</g>
<defs>
<clipPath id="clip0_2036_1179">
<rect width="51" height="16" fill="white"/>
</clipPath>
</defs>
</svg>
